<?xml version="1.0" encoding="UTF-8" standalone="no"?>
<!-- Created with Inkscape (http://www.inkscape.org/) -->

<svg
   xmlns:dc="http://purl.org/dc/elements/1.1/"
   xmlns:cc="http://creativecommons.org/ns#"
   xmlns:rdf="http://www.w3.org/1999/02/22-rdf-syntax-ns#"
   xmlns:svg="http://www.w3.org/2000/svg"
   xmlns="http://www.w3.org/2000/svg"
   xmlns:sodipodi="http://sodipodi.sourceforge.net/DTD/sodipodi-0.dtd"
   xmlns:inkscape="http://www.inkscape.org/namespaces/inkscape"
   width="130"
   height="75"
   id="svg2"
   version="1.1"
   inkscape:version="0.48.2 r9819"
   sodipodi:docname="Segway_logo.svg">
  <title
     id="title3972">Segway Inc. logo</title>
  <defs
     id="defs4" />
  <sodipodi:namedview
     id="base"
     pagecolor="#ffffff"
     bordercolor="#666666"
     borderopacity="1.0"
     inkscape:pageopacity="0.0"
     inkscape:pageshadow="2"
     inkscape:zoom="4.1250279"
     inkscape:cx="63.782327"
     inkscape:cy="37.500004"
     inkscape:document-units="px"
     inkscape:current-layer="layer1"
     showgrid="false"
     units="px"
     inkscape:window-width="1024"
     inkscape:window-height="689"
     inkscape:window-x="0"
     inkscape:window-y="27"
     inkscape:window-maximized="1"
     fit-margin-top="0"
     fit-margin-left="0"
     fit-margin-right="0"
     fit-margin-bottom="0" />
  <metadata
     id="metadata7">
    <rdf:RDF>
      <cc:Work
         rdf:about="">
        <dc:format>image/svg+xml</dc:format>
        <dc:type
           rdf:resource="http://purl.org/dc/dcmitype/StillImage" />
        <dc:title>Segway Inc. logo</dc:title>
        <dc:date>2012-01-07</dc:date>
        <dc:creator>
          <cc:Agent>
            <dc:title>Segway Inc.</dc:title>
          </cc:Agent>
        </dc:creator>
        <dc:rights>
          <cc:Agent>
            <dc:title></dc:title>
          </cc:Agent>
        </dc:rights>
        <dc:publisher>
          <cc:Agent>
            <dc:title>Segway Inc.</dc:title>
          </cc:Agent>
        </dc:publisher>
        <dc:description>Traced from sample image using Inkscape</dc:description>
      </cc:Work>
    </rdf:RDF>
  </metadata>
  <g
     inkscape:label="Layer 1"
     inkscape:groupmode="layer"
     id="layer1"
     transform="translate(-585.4314,-750.90531)">
    <g
       id="g3938"
       transform="matrix(0.03542412,0,0,0.03542412,627.42588,760.44447)">
      <g
         id="g3928">
        <path
           sodipodi:type="arc"
           style="fill:none;stroke:#000000;stroke-width:26.22418785;stroke-linecap:round;stroke-linejoin:round;stroke-miterlimit:4;stroke-opacity:1;stroke-dasharray:none;stroke-dashoffset:0"
           id="path3138"
           sodipodi:cx="1378.8202"
           sodipodi:cy="900.35901"
           sodipodi:rx="81.974335"
           sodipodi:ry="81.974335"
           d="m 1460.7945,900.35901 c 0,45.27317 -36.7011,81.97433 -81.9743,81.97433 -45.2732,0 -81.9743,-36.70116 -81.9743,-81.97433 0,-45.27318 36.7011,-81.97434 81.9743,-81.97434 45.2732,0 81.9743,36.70116 81.9743,81.97434 z"
           transform="matrix(0.36226098,0,0,0.36226098,1922.1585,1148.8493)" />
        <path
           style="fill:#0b0b0b"
           d="m 2404.3639,1487.3682 c -0.4334,-0.3427 -1.0146,-0.6136 -0.8125,-1.2645 0,-7.6047 0,-15.2095 0,-22.8142 0.5934,-0.4066 1.1375,-0.9589 1.7613,-1.2754 7.349,0.035 14.7013,-0.1 22.0472,0.1431 1.5665,0.533 3.3863,0.03 4.8661,0.7834 2.2124,0.097 4.1536,1.5386 5.4584,3.2448 0.5675,1.6246 0.5665,3.5007 -0.01,5.1252 -0.6661,1.631 -2.0296,2.7459 -3.6261,3.4746 -1.5482,0.9105 -3.3176,1.3499 -5.1105,1.2504 -1.6777,-0.2152 -2.1542,2.155 -0.3199,2.2952 1.2571,1.1599 2.8498,1.7517 4.1516,2.8334 2.0814,1.6801 4.4598,2.9577 6.5374,4.6329 0.4799,0.3889 0.8214,2.1963 -0.079,2.0964 -4.1654,0.01 -8.3344,0.1749 -12.4971,0.02 -1.7268,-0.1851 -2.6745,-1.8827 -4.0889,-2.6967 -1.2537,-1.2414 -2.8824,-2.0239 -4.0688,-3.3337 -1.1652,-1.2262 -3.1057,-1.9959 -3.4378,-3.8129 -0.1049,-1.5769 -0.1793,-3.1918 0.095,-4.7533 1.0439,-1.0875 2.8688,-0.9327 4.2989,-1.1865 1.5163,-0.028 2.9432,-0.5365 4.3355,-1.0785 1.5169,-0.105 1.8021,-2.5825 0.6627,-3.4044 -1.1006,-0.9863 -2.6248,-1.1613 -4.0752,-1.1301 -1.9071,0.037 -3.8776,-0.1189 -5.7336,0.3604 -0.7267,0.1114 -0.5375,0.7942 -0.559,1.3456 -0.079,6.2085 -0.1576,12.4171 -0.2364,18.6256 -1.1347,0.6417 -2.3345,1.2663 -3.6888,1.1466 -1.6858,-0.021 -3.3989,0.1403 -5.0652,-0.1554 -0.305,-0.087 -0.5645,-0.2776 -0.8085,-0.472 z"
           id="path3127"
           inkscape:connector-curvature="0" />
        <path
           style="fill:#020202"
           d="m -373.69624,1821.9914 c -25.138,-1.5814 -60.1209,-6.7655 -80.1432,-11.8764 -32.9095,-8.4005 -56.8598,-20.5279 -75.4183,-38.1888 -15.5495,-14.7973 -25.2632,-32.3047 -30.1202,-54.2866 -2.3097,-10.4536 -2.3183,-10.7665 -2.3183,-84.9922 0,-79.8488 0.057,-80.9168 5.2194,-97.5 11.7494,-37.7438 43.0785,-64.2797 93.279,-79.0078 20.8902,-6.1289 40.9104,-9.6904 74.0989,-13.1817 13.0032,-1.3679 33.5942,-1.6839 132.17461,-2.0287 l 116.77183,-0.4084 5.3351,2.4425 c 9.2198,4.221 14.6212,14.0786 14.6212,26.6841 0,12.4492 -5.3855,22.4084 -14.383,26.5978 l -5.117,2.3827 -87,0.026 c -48.3069,0.014 -92.30265,0.4648 -98.92281,1.0133 -30.60953,2.5357 -45.86903,10.56 -52.73093,27.7285 -2.1824,5.4605 -2.3163,7.2415 -2.6413,35.1292 -0.3619,31.0649 -0.025,33.9981 4.1822,36.4111 1.5769,0.9044 20.1229,1.3386 73.11284,1.7118 77.31175,0.5444 73.77979,0.2697 79.13303,6.155 4.78858,5.2645 5.86701,8.8208 5.8662,19.345 -6.9e-4,8.9447 -0.28713,10.5431 -2.71435,15.1464 -1.68426,3.1943 -4.14957,6.0392 -6.49923,7.5 l -3.78565,2.3532 -71.83272,0.5 -71.83272,0.5 -2.9173,3.2658 -2.9173,3.2658 0,32.935 c 0,35.4671 0.4632,39.9757 5.0438,49.0934 5.3626,10.6744 15.8465,17.2974 33.6515,21.2586 9.29028,2.0669 12.11342,2.1779 53.80474,2.1152 56.47671,-0.085 80.99035,-2.0104 133.3194,-10.4717 22.9574,-3.712 24.6031,-3.7142 30.3972,-0.04 13.5133,8.5699 17.303,36.2681 6.2857,45.9414 -1.9118,1.6786 -5.3944,3.5694 -7.7392,4.2017 -17.6783,4.7676 -49.27232,10.5915 -72.7631,13.4129 -36.13463,4.34 -45.32216,4.768 -107.5,5.0078 -33.55004,0.1293 -63.70004,0.065 -67.00004,-0.1422 z"
           id="path3077"
           inkscape:connector-curvature="0" />
        <path
           style="fill:#020202"
           d="m -976.19624,1820.0459 c -62.99766,-2.1782 -110.79176,-6.8354 -148.05976,-14.4273 -24.6527,-5.0221 -27.7704,-6.5308 -31.3872,-15.1891 -2.342,-5.6066 -2.0566,-18.3611 0.5678,-25.3754 2.3185,-6.1967 7.5537,-12.6699 12.1829,-15.0637 4.3243,-2.2362 8.7724,-1.9712 33.6963,2.0073 41.3273,6.5969 70.4189,9.1001 118.99996,10.2393 31.2428,0.7327 45.186,-0.2594 58.704,-4.1767 11.4401,-3.3153 17.5564,-6.6805 24.3701,-13.4087 6.4598,-6.3787 8.9259,-12.2401 8.9259,-21.2145 0,-10.3277 -5.2093,-18.7827 -17.0881,-27.7346 -13.7647,-10.3731 -33.1915,-19.1954 -77.9119,-35.382 -47.56466,-17.2162 -65.29656,-24.3086 -83.15856,-33.2614 -51.1652,-25.6454 -74.8984,-54.6895 -74.9878,-91.7686 -0.1143,-47.3731 47.07,-77.0684 141.6464,-89.1447 35.85096,-4.5778 41.59346,-4.756 167.99996,-5.2146 66.55,-0.2415 123.3596,-0.1471 126.2435,0.2097 12.4162,1.5362 21.438,13.1194 21.5316,27.6444 0.059,9.1684 -2.1832,16.2265 -6.9091,21.7476 -7.039,8.2236 1.6165,7.544 -104.366,8.1949 -92.3093,0.567 -94.7086,0.6305 -103.5,2.7379 -11.0668,2.653 -23.8423,8.807 -29.3213,14.1242 -7.2683,7.0536 -11.1304,17.4651 -9.6747,26.0812 0.3739,2.213 2.4651,6.6971 4.647,9.9646 9.918,14.8523 31.007,25.3094 98.849,49.0148 92.593,32.3541 130.2509,57.1354 143.9619,94.7364 9.6045,26.3393 4.9247,51.4006 -13.2277,70.8381 -26.4008,28.2697 -79.7949,45.2747 -164.7342,52.4646 -12.422,1.0515 -79.8334,1.9845 -98,1.3563 z"
           id="path3075"
           inkscape:connector-curvature="0" />
        <path
           style="fill:#020202"
           d="m 196.3038,1817.9732 c -82.5221,-5.1777 -131.348898,-20.2706 -161.089898,-49.7949 -15.9825,-15.8659 -24.5409,-32.8058 -27.9284005,-55.2794 -2.2066,-14.6389 -2.1587,-144.9358 0.059,-159.8696 8.7616005,-59.006 56.1977005,-94.1991 143.9594985,-106.8041 32.9435,-4.7316 37.025,-4.8669 159.7719,-5.2961 l 116.7718,-0.4083 5.4088,2.4762 c 18.7369,8.578 19.593,43.1084 1.3109,52.8732 l -4.2634,2.2772 -96.5,0.5949 c -68.5735,0.4228 -98.6705,0.9481 -104,1.8151 -32.716,5.3224 -49.4599,17.0981 -53.8747,37.8892 -0.7848,3.6956 -1.1253,31.7768 -1.1253,92.7922 0,97.5368 -0.047,96.7714 6.7277,109.694 6.345,12.103 17.0405,19.4363 34.8875,23.9204 7.8185,1.9644 11.405,2.2282 29.8848,2.1983 17.8919,-0.029 22.5426,-0.3653 31.4225,-2.2731 27.7611,-5.9642 45.8376,-18.465 53.2236,-36.8068 2.2636,-5.6212 2.3455,-6.7907 2.3496,-33.5502 l 0,-27.7259 -2.7704,-2.7741 -2.7704,-2.774 -26.7296,-0.5422 c -14.7013,-0.2982 -27.529,-0.9134 -28.5061,-1.3672 -2.9608,-1.3749 -6.5274,-8.6913 -7.7851,-15.97 -2.0565,-11.901 1.3797,-25.5792 7.6686,-30.5261 2.6477,-2.0827 3.0759,-2.0945 75.8542,-2.0945 44.668,0 77.4485,0.4182 84.1151,1.0732 37.5106,3.6851 54.4661,14.4793 61.1462,38.9268 2.6467,9.6862 2.6114,59.6229 -0.051,72 -7.7496,36.029 -34.7425,60.9675 -83.2458,76.9102 -29.2912,9.6277 -63.3338,15.2496 -109.4259,18.0706 -14.6839,0.8988 -91.626,1.1527 -104.5,0.345 z"
           id="path3073"
           inkscape:connector-curvature="0" />
        <path
           style="fill:#020202"
           d="m 750.8038,1815.5595 c -36.2379,-4.6513 -59.5796,-20.3397 -72.9615,-49.0389 -3.1014,-6.6515 -99.1635,-296.046 -101.0841,-304.5239 -2.4761,-10.9301 -0.9641,-16.6527 5.305,-20.0785 2.9885,-1.633 8.2201,-1.7937 67.2406,-2.0647 35.2,-0.1616 64.9986,-0.044 66.2191,0.2613 1.8344,0.4589 2.8219,2.5038 5.6955,11.7939 1.912,6.1813 19.2767,62.9887 38.5884,126.2387 19.3116,63.25 35.8961,116.3454 36.8546,117.9898 0.9584,1.6443 2.9575,3.6693 4.4425,4.5 2.408,1.3469 2.9918,1.3469 5.3998,0 1.485,-0.8307 3.4899,-2.8629 4.4554,-4.5161 0.9655,-1.6531 15.0757,-45.7485 31.356,-97.9897 16.2802,-52.2412 31.1283,-99.8263 32.9957,-105.7447 6.253,-19.8182 14.1421,-31.3637 27.4982,-40.2427 34.9322,-23.2229 85.403,-11.604 105.6817,24.329 4.2629,7.5538 3.651,5.954 45.9623,120.1744 18.4384,49.775 34.4452,92.6479 35.5707,95.2731 2.0737,4.8371 6.7696,9.7269 9.341,9.7269 0.7742,0 2.7869,-1.2375 4.4728,-2.75 2.535,-2.2742 3.8555,-5.3451 7.6325,-17.75 2.5119,-8.25 19.7741,-65.5734 38.3604,-127.3853 18.5863,-61.8119 34.3963,-112.7863 35.1333,-113.2763 0.7371,-0.4901 15.7401,-0.7667 33.3401,-0.6147 36.2631,0.3131 37.5146,0.548 39.4053,7.3954 1.4322,5.1871 0.67,8.2823 -12.9144,52.4402 -6.6732,21.6924 -25.1788,82.8657 -41.1236,135.9407 -35.5929,118.4775 -37.2958,123.9113 -41.3684,132.0005 -13.7674,27.3454 -39.7011,42.8517 -79.4928,47.5305 -15.9749,1.8783 -27.9314,1.8586 -42.6453,-0.07 -22.6349,-2.9672 -34.9659,-8.8017 -49.3612,-23.3557 -7.7511,-7.8365 -10.7386,-11.7995 -16.2251,-21.5229 -6.3815,-11.3095 -7.8467,-15.3179 -28.7093,-78.5424 -12.0916,-36.6435 -23.0298,-68.1805 -24.3071,-70.0822 -1.8165,-2.7043 -3.1034,-3.5235 -5.9073,-3.76 -6.5366,-0.5515 -6.9132,0.3249 -28.8073,67.0417 -25.8564,78.7911 -26.0969,79.4737 -31.1996,88.5672 -5.8982,10.511 -19.7609,24.4697 -29.8439,30.0504 -18.9454,10.4859 -49.2615,15.3588 -75,12.0552 z"
           id="path3071"
           inkscape:connector-curvature="0" />
        <path
           style="fill:#020202"
           d="m 1601.9375,1377.7812 c -32.5947,-0.01 -65.2288,0.4053 -75.625,1.2813 -62.6269,5.2773 -98.7429,16.0079 -124.9375,37.125 -13.318,10.7363 -23.8104,27.0007 -28.8125,44.6563 l -2.25,7.9374 -0.2813,127.4063 c -0.3179,142.6979 -0.7771,133.2894 6.9063,141.625 7.2734,7.8907 22.1132,13.1166 43.375,15.2813 12.4553,1.268 36.2077,1.3613 47,0.1874 31.2621,-3.4003 46.5273,-10.7356 53.2187,-25.5624 1.6268,-3.6045 1.8246,-9.2548 2.2813,-65.2813 l 0.5,-61.3125 2.7187,-2.375 c 1.5022,-1.2916 4.6522,-2.5988 7,-2.9375 2.3479,-0.339 33.9813,-0.5097 70.2813,-0.3437 52.2727,0.2389 66.5086,0.5786 68.5313,1.625 5.6024,2.8981 5.428,0.6803 5.9687,67.1874 0.2766,34.0242 0.8981,62.3935 1.4063,63.5 0.5051,1.1 2.2307,3.9639 3.8437,6.3438 9.4492,13.9418 38.8541,21.3027 79.25,19.8438 24.7228,-0.8929 37.3525,-3.1142 49,-8.5626 8.2227,-3.8463 11.8981,-7.2078 15.1875,-13.9062 l 2.8125,-5.7188 0,-126 c 0,-117.7273 -0.1252,-126.5491 -1.8125,-134.375 -3.9223,-18.1912 -10.8996,-31.3687 -23.125,-43.7187 -24.2578,-24.5053 -61.3302,-36.9388 -127.0625,-42.5937 -10.225,-0.88 -42.7803,-1.3068 -75.375,-1.3126 z m 1.1875,51.1876 c 15.0474,0.09 29.8752,1.1978 38.4375,3.2812 15.1475,3.6856 24.8979,10.0881 29.9375,19.6875 5.4452,10.3719 5.8125,13.566 5.8125,51.3437 0,37.9498 -0.031,38.0737 -6.0625,40.5938 -4.9123,2.0521 -137.3432,2.0227 -142.0625,-0.031 -6.4413,-2.8034 -6.375,-2.4109 -6.375,-40.6876 0,-31.9035 0.1507,-35.1688 2,-41.1562 5.0554,-16.3675 16.957,-25.6972 38.5625,-30.2188 9.4417,-1.9759 24.7026,-2.9023 39.75,-2.8124 z"
           transform="translate(0,62.362)"
           id="path3069"
           inkscape:connector-curvature="0" />
        <path
           style="fill:#020202"
           d="m 2115.6893,1815.2123 c -26.9253,-3.4355 -42.5605,-10.7623 -49.2202,-23.0652 -2.1433,-3.9594 -2.1704,-4.6756 -2.6653,-70.5774 l -0.5,-66.5774 -4.2172,-8.5087 c -3.5177,-7.0973 -15.7655,-22.9196 -73.8416,-95.3919 -38.2934,-47.7858 -70.5119,-88.6229 -71.5966,-90.7492 -2.2268,-4.365 -2.638,-10.3443 -0.9308,-13.5344 0.63,-1.1772 2.5946,-2.9325 4.3658,-3.9006 2.9788,-1.6283 8.7924,-1.7815 77.4789,-2.041 48.0013,-0.1814 74.9173,0.072 76.1218,0.7165 1.0248,0.5485 14.6185,18.2248 30.2082,39.2807 53.362,72.0722 62.7135,84.439 65.8401,87.0698 5.9864,5.0373 14.3942,4.8088 20.3976,-0.5544 1.9898,-1.7776 24.3447,-30.457 49.6774,-63.732 25.3327,-33.275 47.0578,-61.0559 48.278,-61.7353 2.9404,-1.6373 68.7735,-1.7832 75.1933,-0.1667 8.3595,2.1049 11.4049,8.8639 7.7336,17.1635 -1.7273,3.9048 -117.3218,148.0453 -135.8761,169.4305 -3.432,3.9556 -7.4982,9.5806 -9.0362,12.5 l -2.7962,5.308 -0.5,71 c -0.4617,65.563 -0.6377,71.3063 -2.2988,75 -5.1381,11.4253 -18.1382,18.4869 -40.7012,22.1085 -13.2776,2.1311 -47.688,2.6698 -61.1145,0.9567 z"
           id="path3065"
           inkscape:connector-curvature="0" />
      </g>
      <g
         id="g3923">
        <path
           sodipodi:type="arc"
           style="fill:#000000;fill-opacity:1;stroke:none"
           id="path3921"
           sodipodi:cx="1150.0938"
           sodipodi:cy="-191.53137"
           sodipodi:rx="170.28723"
           sodipodi:ry="170.28723"
           d="m 1320.381,-191.53137 c 0,94.047039 -76.2402,170.287229 -170.2872,170.287229 -94.0471,0 -170.28728,-76.24019 -170.28728,-170.287229 0,-94.04704 76.24018,-170.28723 170.28728,-170.28723 94.047,0 170.2872,76.24019 170.2872,170.28723 z"
           transform="matrix(1.0615385,0,0,1.0615385,-303.06423,140.5169)" />
        <path
           style="fill:#020202"
           d="m 529.8038,1257.0472 c -17.8679,-2.1531 -31.0812,-5.1199 -48.9024,-10.9801 -85.7828,-28.2083 -130.4971,-91.3444 -127.7768,-180.4197 0.6184,-20.2479 1.9944,-30.5834 7.1117,-53.4189 4.6836,-20.90005 24.592,-87.11055 50.2385,-167.08115 15.2882,-47.6717 23.0439,-74.0519 26.4598,-90 3.103,-14.4871 3.3834,-41.225 0.5401,-51.5 -2.0921,-7.5603 -10.7417,-26.0802 -16.0732,-34.4148 -12.0183,-18.7876 -30.4155,-29.7818 -61.5207,-36.7648 -9.1117,-2.0456 -12.9053,-2.1811 -78.077,-2.7891 -75.5226,-0.7045 -71.8202,-0.3894 -85.5,-7.2772 -8.1276,-4.0923 -18.0433,-14.3638 -22.3518,-23.1539 -14.4428,-29.46553 -0.9183,-63.19713 30.3518,-75.701 l 6,-2.3992 178.5,-0.30246 c 188.5422,-0.31947 188.3123,-0.32427 206.6063,4.30837 27.0083,6.83934 44.357,23.68858 47.6101,46.23937 2.2669,15.71418 -1.0213,30.38842 -12.7176,56.75472 -19.6572,44.312 -76.2897,156.2108 -148.7949,294 -26.4179,50.2049 -30.6809,59.0775 -35.638,74.1755 -10.016,30.50555 -12.309,59.86675 -6.5071,83.32455 2.4534,9.9197 11.4564,27.4314 18.3134,35.6211 14.325,17.1096 41.3545,31.8833 67.4762,36.8813 10.4427,1.998 34.8964,1.9783 45.5182,-0.037 49.4167,-9.3742 94.0901,-49.7625 114.4434,-103.4658 1.9802,-5.225 33.293,-104.45005 69.5838,-220.50005 36.2908,-116.05 78.8667,-252.162 94.613,-302.47111 37.9076,-121.11437 39.0004,-125.65651 38.9813,-162.02889 -0.01,-19.02164 -0.2731,-22.53745 -2.282,-30.5 -2.9789,-11.80753 -9.7776,-25.57944 -16.1161,-32.64577 -14.9163,-16.62929 -40.7877,-28.49886 -71.59,-32.84483 -5.775,-0.81482 -93.8002,-1.18708 -316.5,-1.33851 -247.2244,-0.16809 -309.3938,-0.46412 -313,-1.49038 -24.8833,-7.08139 -41.3608,-28.26768 -41.3608,-53.18051 0,-24.65406 15.7469,-45.43794 39.9423,-52.71857 5.6093,-1.68791 21.6177,-1.79663 306.4185,-2.08114 211.2781,-0.21106 304.9537,0.0259 315.5,0.79823 66.1176,4.84164 117.7207,25.84481 154.5353,62.89792 27.5166,27.69495 43.5721,59.64499 51.1214,101.73044 2.0442,11.39618 2.3091,16.0282 2.3089,40.37312 -4e-4,30.96292 -1.4966,44.73124 -8.0921,74.46082 -5.1975,23.42814 -6.1588,26.53524 -55.7037,180.03918 -67.1864,208.1626 -108.9169,337.8106 -132.6126,412.00005 -23.2954,72.9357 -25.1929,78.4439 -32.1267,93.2611 -35.2457,75.3175 -104.2547,125.107 -186.7803,134.7606 -15.3484,1.7954 -36.6522,1.7456 -52.1502,-0.1219 z"
           id="path3055"
           inkscape:connector-curvature="0" />
        <path
           style="fill:#020202"
           d="m -12.696198,444.95367 c -14.141,-1.90301 -29.004,-11.22932 -36.8252,-23.10714 -6.1877,-9.39721 -8.745,-16.9412 -9.3897,-27.69918 -1.4609,-24.37908 12.2678,-45.32185 35.6998,-54.45939 l 6.5151,-2.54061 L 335.8038,336.864 c 252.1711,-0.20271 354.35,0.0286 359,0.81263 19.8588,3.34845 37.2855,19.61216 42.5109,39.67391 1.923,7.38285 1.9034,20.28591 -0.042,27.75526 -2.2708,8.71816 -7.22,17.25203 -13.9688,24.08633 -6.4607,6.54251 -12.5126,10.33236 -22,13.77686 l -6,2.17836 -352.5,0.10502 c -193.875,0.0578 -353.849998,-0.0766 -355.499998,-0.2987 z"
           id="path3053"
           inkscape:connector-curvature="0" />
      </g>
    </g>
  </g>
</svg>
